<?xml version="1.0" ?><svg enable-background="new 0 0 32 32" version="1.1" viewBox="0 0 32 32" xml:space="preserve"  fill="#fff" xmlns="http://www.w3.org/2000/svg" xmlns:xlink="http://www.w3.org/1999/xlink"><g id="Outline_copy"><path d="M2.775,9.784c1.099-1.243,2.198-2.486,3.298-3.73C6.362,5.727,5.108,5.17,4.852,5.459C3.89,6.547,2.928,7.635,1.966,8.722   c-0.245-0.249-0.49-0.499-0.735-0.748C0.978,7.716-0.346,7.492,0.166,8.014c0.489,0.497,0.977,0.995,1.466,1.492   C1.803,9.68,2.553,10.035,2.775,9.784z"/><path d="M9.96,6.196c-0.854,0-1.819,0.821-0.452,0.821c3.797,0,7.594,0,11.391,0c0.854,0,1.819-0.821,0.452-0.821   C17.554,6.196,13.757,6.196,9.96,6.196z"/><path d="M30.867,8.968c-7.119,0-14.238,0-21.358,0c-1.361,0-0.415,0.823,0.448,0.823c7.119,0,14.238,0,21.358,0   C32.676,9.791,31.73,8.968,30.867,8.968z"/><path d="M4.785,13.808c-0.878,0.993-1.756,1.985-2.633,2.978c-0.26-0.265-0.521-0.53-0.781-0.795   c-0.296-0.302-1.573-0.031-1.343,0.203c0.489,0.497,0.977,0.995,1.466,1.492c0.29,0.295,1.081,0.249,1.349-0.055   c1.099-1.243,2.199-2.486,3.298-3.73C6.346,13.669,5.07,13.486,4.785,13.808z"/><path d="M21.352,14.296c-3.797,0-7.594,0-11.391,0c-0.853,0-1.823,0.819-0.455,0.819c3.797,0,7.594,0,11.391,0   C21.75,15.115,22.72,14.296,21.352,14.296z"/><path d="M30.511,16.986c-7.119,0-14.238,0-21.358,0c-1.011,0,0.655,0.985,1.161,0.985c7.119,0,14.238,0,21.358,0   C32.684,17.971,31.018,16.986,30.511,16.986z"/><path d="M9.518,23.22c3.797,0,7.594,0,11.391,0c0.86,0,1.797-0.832,0.432-0.832c-3.797,0-7.594,0-11.391,0   C9.09,22.389,8.153,23.22,9.518,23.22z"/><path d="M31.079,25.177c-7.119,0-14.238,0-21.358,0c-1.181,0-1.159,0.8,0.025,0.8c7.119,0,14.238,0,21.358,0   C32.286,25.977,32.263,25.177,31.079,25.177z"/><path d="M0.265,24.002c-0.025,3.16,5.455,3.69,5.633,0.328C5.732,21.213,0.292,20.602,0.265,24.002z M4.536,24.002   c-0.04,0.763-0.391,1.536-1.128,1.865c-1.024,0.458-1.777-0.588-1.783-1.537c-0.004-0.719,0.362-1.407,0.98-1.777   C3.697,21.901,4.482,22.975,4.536,24.002z"/></g></svg>